<svg height="480pt" viewBox="-16 0 480 480" width="480pt" xmlns="http://www.w3.org/2000/svg"><path d="m208 352h-16c-4.417969 0-8 3.582031-8 8s3.582031 8 8 8h16c4.417969 0 8-3.582031 8-8s-3.582031-8-8-8zm0 0"/><path d="m200 328h8c8.835938 0 16-7.164062 16-16v-32h24c4.417969 0 8-3.582031 8-8s-3.582031-8-8-8h-24c-8.835938 0-16 7.164062-16 16v32h-8c-4.417969 0-8 3.582031-8 8s3.582031 8 8 8zm0 0"/><path d="m152 280h32c4.417969 0 8-3.582031 8-8s-3.582031-8-8-8h-32c-4.417969 0-8 3.582031-8 8s3.582031 8 8 8zm0 0"/><path d="m169.710938 291.046875c-2.730469 3.472656-2.132813 8.5 1.339843 11.234375 3.472657 2.730469 8.5 2.132812 11.234375-1.335938 2.730469-3.46875 2.136719-8.5-1.332031-11.234374-3.472656-2.734376-8.507813-2.136719-11.242187 1.335937zm0 0"/><path d="m256 296c0 4.417969-3.582031 8-8 8s-8-3.582031-8-8 3.582031-8 8-8 8 3.582031 8 8zm0 0"/><path d="m16 440c0-13.253906 10.746094-24 24-24h64c0 26.507812 21.492188 48 48 48s48-21.492188 48-48h56c13.253906 0 24 10.746094 24 24v40h16v-40c-.027344-22.082031-17.917969-39.972656-40-40h-28.847656c36.867187-15.726562 60.804687-51.917969 60.847656-92v-164c0-4.417969-3.582031-8-8-8h-128c-35.328125.039062-63.960938 28.671875-64 64v33.136719c-14.113281 3.589843-23.992188 16.300781-23.992188 30.863281s9.878907 27.273438 23.992188 30.863281v13.136719c0 19.1875 5.554688 37.964844 16 54.0625v37.9375h-64c-22.082031.027344-39.9726562 17.917969-40 40v40h16zm136 8c-8.496094.035156-16.65625-3.328125-22.664062-9.335938-6.007813-6.007812-9.371094-14.167968-9.335938-22.664062v-34.886719c17.441406 16.28125 40.15625 25.753907 64 26.6875v8.199219c0 17.671875-14.328125 32-32 32zm0-296h120v48h-144c-4.417969 0-8 3.582031-8 8v24h-16v-32c.027344-26.5 21.5-47.972656 48-48zm-72 112c0-8.835938 7.164062-16 16-16h32c4.417969 0 8-3.582031 8-8v-24h136v92c0 46.390625-37.609375 84-84 84s-84-37.609375-84-84v-12h16v-16h-24c-8.835938 0-16-7.164062-16-16zm0 0"/><path d="m408 0h-248c-22.082031.0273438-39.972656 17.917969-40 40v80h16v-80c0-13.253906 10.746094-24 24-24h248c13.253906 0 24 10.746094 24 24v144c0 13.253906-10.746094 24-24 24h-16c-1.578125.003906-3.125.46875-4.441406 1.34375l-52.597656 35.0625 8.625-25.878906c.808593-2.4375.402343-5.117188-1.101563-7.203125-1.5-2.085938-3.914063-3.324219-6.484375-3.324219h-32v16h20.894531l-12.480469 37.472656c-1.0625 3.234375.035157 6.785156 2.738282 8.855469s6.421875 2.203125 9.261718.328125l69.984376-46.65625h13.601562c22.082031-.027344 39.972656-17.917969 40-40v-144c-.027344-22.082031-17.917969-39.9726562-40-40zm0 0"/><path d="m352 168h16v16h-16zm0 0"/><path d="m176 40h16v16h-16zm0 0"/><path d="m208 40h80v16h-80zm0 0"/><path d="m160 72h128v16h-128zm0 0"/><path d="m160 104h128v16h-128zm0 0"/><path d="m381.105469 131.128906c20.0625-9.804687 30.71875-32.148437 25.699219-53.910156-5.015626-21.761719-24.375-37.191406-46.707032-37.21875h-.097656c-25.867188.433594-46.914062 20.957031-48 46.808594-.191406 7.007812 1.175781 13.972656 4 20.390625l14.65625-6.398438c-1.871094-4.285156-2.777344-8.925781-2.65625-13.601562.71875-17.234375 14.753906-30.917969 32-31.199219h.0625c14.925781-.019531 27.882812 10.277344 31.230469 24.824219 3.347656 14.542969-3.804688 29.46875-17.238281 35.976562-13.515626 6.507813-22.09375 20.199219-22.054688 35.199219l16-.160156c.019531-8.851563 5.113281-16.902344 13.105469-20.710938zm0 0"/></svg>